<svg width="230" height="117" viewBox="0 0 230 117" fill="none" xmlns="http://www.w3.org/2000/svg">
<path d="M97.108 59.072C96.82 59.072 96.528 59.044 96.232 58.988C95.944 58.932 95.672 58.836 95.416 58.7C95.168 58.564 94.96 58.38 94.792 58.148C94.624 57.916 94.516 57.628 94.468 57.284H95.5C95.58 57.5 95.708 57.676 95.884 57.812C96.068 57.94 96.272 58.032 96.496 58.088C96.728 58.144 96.948 58.172 97.156 58.172C97.284 58.172 97.432 58.164 97.6 58.148C97.768 58.132 97.928 58.096 98.08 58.04C98.24 57.976 98.368 57.884 98.464 57.764C98.568 57.644 98.62 57.476 98.62 57.26C98.62 57.1 98.584 56.968 98.512 56.864C98.44 56.76 98.34 56.676 98.212 56.612C98.084 56.54 97.928 56.488 97.744 56.456C97.368 56.376 96.964 56.3 96.532 56.228C96.108 56.156 95.732 56.02 95.404 55.82C95.292 55.748 95.188 55.668 95.092 55.58C95.004 55.484 94.928 55.38 94.864 55.268C94.8 55.148 94.748 55.02 94.708 54.884C94.676 54.74 94.66 54.584 94.66 54.416C94.66 54.104 94.72 53.836 94.84 53.612C94.968 53.38 95.144 53.192 95.368 53.048C95.592 52.896 95.848 52.784 96.136 52.712C96.432 52.64 96.748 52.604 97.084 52.604C97.5 52.604 97.872 52.672 98.2 52.808C98.536 52.936 98.812 53.128 99.028 53.384C99.244 53.632 99.372 53.94 99.412 54.308H98.464C98.408 54.076 98.256 53.888 98.008 53.744C97.76 53.592 97.444 53.516 97.06 53.516C96.932 53.516 96.788 53.528 96.628 53.552C96.468 53.568 96.316 53.608 96.172 53.672C96.028 53.728 95.908 53.816 95.812 53.936C95.716 54.048 95.668 54.2 95.668 54.392C95.668 54.568 95.712 54.716 95.8 54.836C95.896 54.956 96.028 55.052 96.196 55.124C96.364 55.196 96.556 55.256 96.772 55.304C97.052 55.36 97.36 55.42 97.696 55.484C98.032 55.54 98.296 55.6 98.488 55.664C98.744 55.744 98.956 55.856 99.124 56C99.3 56.144 99.428 56.316 99.508 56.516C99.596 56.716 99.64 56.948 99.64 57.212C99.64 57.588 99.564 57.896 99.412 58.136C99.268 58.376 99.072 58.564 98.824 58.7C98.576 58.836 98.3 58.932 97.996 58.988C97.7 59.044 97.404 59.072 97.108 59.072ZM103.693 61.832C103.205 61.832 102.733 61.764 102.277 61.628C101.829 61.492 101.425 61.256 101.065 60.92L101.509 60.116C101.821 60.364 102.153 60.56 102.505 60.704C102.865 60.848 103.241 60.92 103.633 60.92C104.289 60.92 104.757 60.728 105.037 60.344C105.325 59.968 105.469 59.488 105.469 58.904V58.148C105.325 58.364 105.141 58.544 104.917 58.688C104.701 58.824 104.461 58.928 104.197 59C103.933 59.064 103.661 59.096 103.381 59.096C102.757 59.096 102.265 58.972 101.905 58.724C101.545 58.476 101.289 58.132 101.137 57.692C100.985 57.252 100.909 56.744 100.909 56.168V52.676H101.929V55.88C101.929 56.168 101.945 56.452 101.977 56.732C102.017 57.004 102.093 57.252 102.205 57.476C102.317 57.692 102.481 57.868 102.697 58.004C102.913 58.132 103.201 58.196 103.561 58.196C104.017 58.196 104.381 58.084 104.653 57.86C104.933 57.636 105.133 57.336 105.253 56.96C105.381 56.584 105.445 56.168 105.445 55.712V52.676H106.465V59C106.465 59.456 106.405 59.86 106.285 60.212C106.165 60.564 105.985 60.86 105.745 61.1C105.505 61.34 105.213 61.52 104.869 61.64C104.533 61.768 104.141 61.832 103.693 61.832ZM108.07 59V52.676H109.054L109.102 53.636C109.246 53.404 109.43 53.212 109.654 53.06C109.878 52.908 110.122 52.796 110.386 52.724C110.658 52.644 110.922 52.604 111.178 52.604C111.794 52.604 112.274 52.732 112.618 52.988C112.97 53.244 113.218 53.592 113.362 54.032C113.514 54.464 113.59 54.956 113.59 55.508V59H112.57V55.784C112.57 55.488 112.55 55.204 112.51 54.932C112.478 54.66 112.406 54.416 112.294 54.2C112.19 53.984 112.038 53.816 111.838 53.696C111.638 53.568 111.37 53.504 111.034 53.504C110.618 53.504 110.262 53.62 109.966 53.852C109.678 54.084 109.458 54.396 109.306 54.788C109.162 55.18 109.09 55.62 109.09 56.108V59H108.07ZM117.859 59.072C117.195 59.072 116.643 58.936 116.203 58.664C115.771 58.384 115.447 58 115.231 57.512C115.023 57.024 114.919 56.472 114.919 55.856C114.919 55.256 115.027 54.712 115.243 54.224C115.467 53.728 115.803 53.336 116.251 53.048C116.707 52.752 117.283 52.604 117.979 52.604C118.411 52.604 118.795 52.676 119.131 52.82C119.475 52.964 119.759 53.176 119.983 53.456C120.207 53.728 120.363 54.072 120.451 54.488H119.407C119.287 54.136 119.095 53.888 118.831 53.744C118.575 53.592 118.271 53.516 117.919 53.516C117.439 53.516 117.055 53.628 116.767 53.852C116.479 54.076 116.267 54.368 116.131 54.728C116.003 55.08 115.939 55.456 115.939 55.856C115.939 56.272 116.007 56.656 116.143 57.008C116.279 57.36 116.491 57.644 116.779 57.86C117.067 58.068 117.439 58.172 117.895 58.172C118.231 58.172 118.547 58.1 118.843 57.956C119.147 57.812 119.347 57.556 119.443 57.188H120.499C120.419 57.62 120.247 57.976 119.983 58.256C119.727 58.536 119.411 58.744 119.035 58.88C118.667 59.008 118.275 59.072 117.859 59.072ZM121.792 59V50.516H122.812V53.648C122.964 53.424 123.148 53.236 123.364 53.084C123.588 52.924 123.832 52.804 124.096 52.724C124.36 52.644 124.632 52.604 124.912 52.604C125.528 52.604 126.008 52.732 126.352 52.988C126.704 53.244 126.952 53.592 127.096 54.032C127.24 54.464 127.312 54.96 127.312 55.52V59H126.292V55.832C126.292 55.552 126.272 55.276 126.232 55.004C126.2 54.724 126.132 54.472 126.028 54.248C125.924 54.024 125.764 53.844 125.548 53.708C125.34 53.572 125.056 53.504 124.696 53.504C124.352 53.504 124.056 53.58 123.808 53.732C123.568 53.884 123.376 54.088 123.232 54.344C123.088 54.592 122.98 54.868 122.908 55.172C122.844 55.468 122.812 55.76 122.812 56.048V59H121.792ZM128.882 59V52.676H129.866L129.914 53.66C130.074 53.412 130.258 53.212 130.466 53.06C130.682 52.908 130.918 52.796 131.174 52.724C131.438 52.644 131.722 52.604 132.026 52.604C132.082 52.604 132.134 52.604 132.182 52.604C132.238 52.604 132.294 52.604 132.35 52.604V53.564H131.978C131.482 53.564 131.078 53.672 130.766 53.888C130.462 54.096 130.242 54.38 130.106 54.74C129.97 55.092 129.902 55.484 129.902 55.916V59H128.882ZM136.002 59.072C135.338 59.072 134.782 58.936 134.334 58.664C133.886 58.384 133.55 58 133.326 57.512C133.11 57.024 133.002 56.468 133.002 55.844C133.002 55.212 133.114 54.656 133.338 54.176C133.562 53.688 133.898 53.304 134.346 53.024C134.794 52.744 135.354 52.604 136.026 52.604C136.69 52.604 137.242 52.744 137.682 53.024C138.13 53.304 138.462 53.688 138.678 54.176C138.902 54.656 139.014 55.212 139.014 55.844C139.014 56.468 138.902 57.024 138.678 57.512C138.454 58 138.118 58.384 137.67 58.664C137.23 58.936 136.674 59.072 136.002 59.072ZM136.002 58.172C136.466 58.172 136.842 58.068 137.13 57.86C137.426 57.652 137.642 57.372 137.778 57.02C137.922 56.668 137.994 56.276 137.994 55.844C137.994 55.412 137.922 55.02 137.778 54.668C137.642 54.316 137.426 54.036 137.13 53.828C136.842 53.62 136.466 53.516 136.002 53.516C135.546 53.516 135.17 53.62 134.874 53.828C134.586 54.036 134.37 54.316 134.226 54.668C134.09 55.02 134.021 55.412 134.021 55.844C134.021 56.276 134.09 56.668 134.226 57.02C134.37 57.372 134.586 57.652 134.874 57.86C135.17 58.068 135.546 58.172 136.002 58.172ZM140.378 59V52.676H141.362L141.41 53.636C141.554 53.404 141.738 53.212 141.962 53.06C142.186 52.908 142.43 52.796 142.694 52.724C142.966 52.644 143.23 52.604 143.486 52.604C144.102 52.604 144.582 52.732 144.926 52.988C145.278 53.244 145.526 53.592 145.67 54.032C145.822 54.464 145.898 54.956 145.898 55.508V59H144.878V55.784C144.878 55.488 144.858 55.204 144.818 54.932C144.786 54.66 144.714 54.416 144.602 54.2C144.498 53.984 144.346 53.816 144.146 53.696C143.946 53.568 143.678 53.504 143.342 53.504C142.926 53.504 142.57 53.62 142.274 53.852C141.986 54.084 141.766 54.396 141.614 54.788C141.47 55.18 141.398 55.62 141.398 56.108V59H140.378ZM150.228 59.072C149.564 59.072 149.008 58.936 148.56 58.664C148.112 58.384 147.776 58 147.552 57.512C147.336 57.024 147.228 56.468 147.228 55.844C147.228 55.212 147.34 54.656 147.564 54.176C147.788 53.688 148.124 53.304 148.572 53.024C149.02 52.744 149.58 52.604 150.252 52.604C150.916 52.604 151.468 52.744 151.908 53.024C152.356 53.304 152.688 53.688 152.904 54.176C153.128 54.656 153.24 55.212 153.24 55.844C153.24 56.468 153.128 57.024 152.904 57.512C152.68 58 152.344 58.384 151.896 58.664C151.456 58.936 150.9 59.072 150.228 59.072ZM150.228 58.172C150.692 58.172 151.068 58.068 151.356 57.86C151.652 57.652 151.868 57.372 152.004 57.02C152.148 56.668 152.22 56.276 152.22 55.844C152.22 55.412 152.148 55.02 152.004 54.668C151.868 54.316 151.652 54.036 151.356 53.828C151.068 53.62 150.692 53.516 150.228 53.516C149.772 53.516 149.396 53.62 149.1 53.828C148.812 54.036 148.596 54.316 148.452 54.668C148.316 55.02 148.248 55.412 148.248 55.844C148.248 56.276 148.316 56.668 148.452 57.02C148.596 57.372 148.812 57.652 149.1 57.86C149.396 58.068 149.772 58.172 150.228 58.172ZM157.245 59.072C156.373 59.072 155.709 58.84 155.253 58.376C154.805 57.912 154.581 57.2 154.581 56.24V52.676H155.601V56.192C155.601 56.608 155.661 56.964 155.781 57.26C155.901 57.556 156.081 57.784 156.321 57.944C156.569 58.096 156.877 58.172 157.245 58.172C157.629 58.172 157.945 58.096 158.193 57.944C158.441 57.784 158.621 57.556 158.733 57.26C158.853 56.964 158.913 56.608 158.913 56.192V52.676H159.933V56.24C159.933 57.2 159.701 57.912 159.237 58.376C158.781 58.84 158.117 59.072 157.245 59.072ZM163.823 59.072C163.535 59.072 163.243 59.044 162.947 58.988C162.659 58.932 162.387 58.836 162.131 58.7C161.883 58.564 161.675 58.38 161.507 58.148C161.339 57.916 161.231 57.628 161.183 57.284H162.215C162.295 57.5 162.423 57.676 162.599 57.812C162.783 57.94 162.987 58.032 163.211 58.088C163.443 58.144 163.663 58.172 163.871 58.172C163.999 58.172 164.147 58.164 164.315 58.148C164.483 58.132 164.643 58.096 164.795 58.04C164.955 57.976 165.083 57.884 165.179 57.764C165.283 57.644 165.335 57.476 165.335 57.26C165.335 57.1 165.299 56.968 165.227 56.864C165.155 56.76 165.055 56.676 164.927 56.612C164.799 56.54 164.643 56.488 164.459 56.456C164.083 56.376 163.679 56.3 163.247 56.228C162.823 56.156 162.447 56.02 162.119 55.82C162.007 55.748 161.903 55.668 161.807 55.58C161.719 55.484 161.643 55.38 161.579 55.268C161.515 55.148 161.463 55.02 161.423 54.884C161.391 54.74 161.375 54.584 161.375 54.416C161.375 54.104 161.435 53.836 161.555 53.612C161.683 53.38 161.859 53.192 162.083 53.048C162.307 52.896 162.563 52.784 162.851 52.712C163.147 52.64 163.463 52.604 163.799 52.604C164.215 52.604 164.587 52.672 164.915 52.808C165.251 52.936 165.527 53.128 165.743 53.384C165.959 53.632 166.087 53.94 166.127 54.308H165.179C165.123 54.076 164.971 53.888 164.723 53.744C164.475 53.592 164.159 53.516 163.775 53.516C163.647 53.516 163.503 53.528 163.343 53.552C163.183 53.568 163.031 53.608 162.887 53.672C162.743 53.728 162.623 53.816 162.527 53.936C162.431 54.048 162.383 54.2 162.383 54.392C162.383 54.568 162.427 54.716 162.515 54.836C162.611 54.956 162.743 55.052 162.911 55.124C163.079 55.196 163.271 55.256 163.487 55.304C163.767 55.36 164.075 55.42 164.411 55.484C164.747 55.54 165.011 55.6 165.203 55.664C165.459 55.744 165.671 55.856 165.839 56C166.015 56.144 166.143 56.316 166.223 56.516C166.311 56.716 166.355 56.948 166.355 57.212C166.355 57.588 166.279 57.896 166.127 58.136C165.983 58.376 165.787 58.564 165.539 58.7C165.291 58.836 165.015 58.932 164.711 58.988C164.415 59.044 164.119 59.072 163.823 59.072ZM173.559 59.072C172.895 59.072 172.343 58.936 171.903 58.664C171.471 58.384 171.147 58 170.931 57.512C170.723 57.024 170.619 56.472 170.619 55.856C170.619 55.256 170.727 54.712 170.943 54.224C171.167 53.728 171.503 53.336 171.951 53.048C172.407 52.752 172.983 52.604 173.679 52.604C174.111 52.604 174.495 52.676 174.831 52.82C175.175 52.964 175.459 53.176 175.683 53.456C175.907 53.728 176.063 54.072 176.151 54.488H175.107C174.987 54.136 174.795 53.888 174.531 53.744C174.275 53.592 173.971 53.516 173.619 53.516C173.139 53.516 172.755 53.628 172.467 53.852C172.179 54.076 171.967 54.368 171.831 54.728C171.703 55.08 171.639 55.456 171.639 55.856C171.639 56.272 171.707 56.656 171.843 57.008C171.979 57.36 172.191 57.644 172.479 57.86C172.767 58.068 173.139 58.172 173.595 58.172C173.931 58.172 174.247 58.1 174.543 57.956C174.847 57.812 175.047 57.556 175.143 57.188H176.199C176.119 57.62 175.947 57.976 175.683 58.256C175.427 58.536 175.111 58.744 174.735 58.88C174.367 59.008 173.975 59.072 173.559 59.072ZM180.252 59.072C179.588 59.072 179.032 58.936 178.584 58.664C178.136 58.384 177.8 58 177.576 57.512C177.36 57.024 177.252 56.468 177.252 55.844C177.252 55.212 177.364 54.656 177.588 54.176C177.812 53.688 178.148 53.304 178.596 53.024C179.044 52.744 179.604 52.604 180.276 52.604C180.94 52.604 181.492 52.744 181.932 53.024C182.38 53.304 182.712 53.688 182.928 54.176C183.152 54.656 183.264 55.212 183.264 55.844C183.264 56.468 183.152 57.024 182.928 57.512C182.704 58 182.368 58.384 181.92 58.664C181.48 58.936 180.924 59.072 180.252 59.072ZM180.252 58.172C180.716 58.172 181.092 58.068 181.38 57.86C181.676 57.652 181.892 57.372 182.028 57.02C182.172 56.668 182.244 56.276 182.244 55.844C182.244 55.412 182.172 55.02 182.028 54.668C181.892 54.316 181.676 54.036 181.38 53.828C181.092 53.62 180.716 53.516 180.252 53.516C179.796 53.516 179.42 53.62 179.124 53.828C178.836 54.036 178.62 54.316 178.476 54.668C178.34 55.02 178.271 55.412 178.271 55.844C178.271 56.276 178.34 56.668 178.476 57.02C178.62 57.372 178.836 57.652 179.124 57.86C179.42 58.068 179.796 58.172 180.252 58.172ZM184.628 59V52.676H185.612L185.66 53.432C185.796 53.24 185.948 53.084 186.116 52.964C186.292 52.844 186.484 52.756 186.692 52.7C186.908 52.636 187.136 52.604 187.376 52.604C187.816 52.604 188.172 52.7 188.444 52.892C188.716 53.076 188.92 53.32 189.056 53.624C189.2 53.408 189.364 53.224 189.548 53.072C189.74 52.92 189.952 52.804 190.184 52.724C190.424 52.644 190.688 52.604 190.976 52.604C191.44 52.604 191.812 52.704 192.092 52.904C192.38 53.104 192.588 53.376 192.716 53.72C192.844 54.056 192.908 54.436 192.908 54.86V59H191.888V55.376C191.888 55.168 191.876 54.956 191.852 54.74C191.836 54.524 191.788 54.324 191.708 54.14C191.628 53.948 191.508 53.796 191.348 53.684C191.196 53.564 190.98 53.504 190.7 53.504C190.436 53.504 190.212 53.568 190.028 53.696C189.852 53.816 189.708 53.98 189.596 54.188C189.484 54.396 189.404 54.62 189.356 54.86C189.308 55.092 189.284 55.324 189.284 55.556V59H188.264V55.364C188.264 55.164 188.252 54.956 188.228 54.74C188.212 54.524 188.168 54.324 188.096 54.14C188.032 53.948 187.92 53.796 187.76 53.684C187.608 53.564 187.396 53.504 187.124 53.504C186.74 53.504 186.44 53.616 186.224 53.84C186.008 54.056 185.856 54.324 185.768 54.644C185.688 54.956 185.648 55.264 185.648 55.568V59H184.628ZM194.46 61.28V52.676H195.432L195.48 53.624C195.696 53.296 195.988 53.044 196.356 52.868C196.732 52.692 197.136 52.604 197.568 52.604C198.208 52.604 198.732 52.748 199.14 53.036C199.548 53.316 199.848 53.7 200.04 54.188C200.24 54.676 200.34 55.228 200.34 55.844C200.34 56.46 200.24 57.012 200.04 57.5C199.84 57.988 199.532 58.372 199.116 58.652C198.7 58.932 198.168 59.072 197.52 59.072C197.2 59.072 196.912 59.04 196.656 58.976C196.4 58.904 196.176 58.804 195.984 58.676C195.792 58.54 195.624 58.384 195.48 58.208V61.28H194.46ZM197.436 58.172C197.9 58.172 198.268 58.068 198.54 57.86C198.812 57.644 199.008 57.36 199.128 57.008C199.256 56.656 199.32 56.268 199.32 55.844C199.32 55.412 199.256 55.02 199.128 54.668C199.008 54.316 198.808 54.036 198.528 53.828C198.248 53.62 197.876 53.516 197.412 53.516C196.996 53.516 196.64 53.624 196.344 53.84C196.056 54.048 195.836 54.332 195.684 54.692C195.532 55.044 195.456 55.432 195.456 55.856C195.456 56.296 195.528 56.692 195.672 57.044C195.816 57.396 196.036 57.672 196.332 57.872C196.628 58.072 196.996 58.172 197.436 58.172ZM204.342 59.072C203.47 59.072 202.806 58.84 202.35 58.376C201.902 57.912 201.678 57.2 201.678 56.24V52.676H202.698V56.192C202.698 56.608 202.758 56.964 202.878 57.26C202.998 57.556 203.178 57.784 203.418 57.944C203.666 58.096 203.974 58.172 204.342 58.172C204.726 58.172 205.042 58.096 205.29 57.944C205.538 57.784 205.718 57.556 205.83 57.26C205.95 56.964 206.01 56.608 206.01 56.192V52.676H207.03V56.24C207.03 57.2 206.798 57.912 206.334 58.376C205.878 58.84 205.214 59.072 204.342 59.072ZM211.185 59C210.705 59 210.317 58.928 210.021 58.784C209.733 58.64 209.521 58.416 209.385 58.112C209.257 57.808 209.193 57.424 209.193 56.96V53.576H208.161V52.676H209.193V50.792H210.213V52.676H211.905V53.576H210.213V56.852C210.213 57.284 210.289 57.604 210.441 57.812C210.601 58.012 210.921 58.112 211.401 58.112H211.869V59H211.185ZM213.058 59V52.676H214.078V59H213.058ZM213.562 51.74C213.354 51.74 213.186 51.676 213.058 51.548C212.938 51.42 212.878 51.256 212.878 51.056C212.878 50.856 212.942 50.696 213.07 50.576C213.198 50.448 213.362 50.384 213.562 50.384C213.746 50.384 213.906 50.448 214.042 50.576C214.186 50.704 214.258 50.864 214.258 51.056C214.258 51.256 214.19 51.42 214.054 51.548C213.918 51.676 213.754 51.74 213.562 51.74ZM215.683 59V52.676H216.667L216.715 53.636C216.859 53.404 217.043 53.212 217.267 53.06C217.491 52.908 217.735 52.796 217.999 52.724C218.271 52.644 218.535 52.604 218.791 52.604C219.407 52.604 219.887 52.732 220.231 52.988C220.583 53.244 220.831 53.592 220.975 54.032C221.127 54.464 221.203 54.956 221.203 55.508V59H220.183V55.784C220.183 55.488 220.163 55.204 220.123 54.932C220.091 54.66 220.019 54.416 219.907 54.2C219.803 53.984 219.651 53.816 219.451 53.696C219.251 53.568 218.983 53.504 218.647 53.504C218.231 53.504 217.875 53.62 217.579 53.852C217.291 54.084 217.071 54.396 216.919 54.788C216.775 55.18 216.703 55.62 216.703 56.108V59H215.683ZM225.521 61.832C225.089 61.832 224.689 61.764 224.321 61.628C223.953 61.5 223.641 61.296 223.385 61.016C223.129 60.736 222.957 60.38 222.869 59.948H223.925C223.989 60.188 224.109 60.38 224.285 60.524C224.461 60.668 224.665 60.768 224.897 60.824C225.129 60.888 225.357 60.92 225.581 60.92C226.013 60.92 226.361 60.832 226.625 60.656C226.897 60.488 227.093 60.252 227.213 59.948C227.333 59.652 227.393 59.312 227.393 58.928V58.052C227.257 58.292 227.077 58.488 226.853 58.64C226.629 58.792 226.385 58.904 226.121 58.976C225.857 59.04 225.585 59.072 225.305 59.072C224.665 59.072 224.141 58.932 223.733 58.652C223.325 58.364 223.021 57.98 222.821 57.5C222.629 57.012 222.533 56.464 222.533 55.856C222.533 55.248 222.633 54.7 222.833 54.212C223.033 53.716 223.341 53.324 223.757 53.036C224.173 52.748 224.705 52.604 225.353 52.604C225.721 52.604 226.093 52.672 226.469 52.808C226.845 52.944 227.153 53.164 227.393 53.468L227.441 52.676H228.413V58.952C228.413 59.544 228.305 60.056 228.089 60.488C227.881 60.92 227.561 61.252 227.129 61.484C226.705 61.716 226.169 61.832 225.521 61.832ZM225.449 58.172C225.873 58.172 226.229 58.064 226.517 57.848C226.805 57.632 227.025 57.344 227.177 56.984C227.329 56.624 227.405 56.232 227.405 55.808C227.405 55.368 227.329 54.976 227.177 54.632C227.033 54.288 226.817 54.016 226.529 53.816C226.241 53.616 225.877 53.516 225.437 53.516C224.981 53.516 224.613 53.62 224.333 53.828C224.061 54.036 223.861 54.316 223.733 54.668C223.613 55.02 223.553 55.412 223.553 55.844C223.553 56.292 223.617 56.692 223.745 57.044C223.873 57.396 224.077 57.672 224.357 57.872C224.637 58.072 225.001 58.172 225.449 58.172Z" fill="black"/>
<path d="M25.896 59V42.032H28.896V49.328H31.32L36.12 42.032H39.528L33.864 50.336L39.528 59H36.048L31.464 52.064H28.896V59H25.896ZM46.9734 59.168C45.6774 59.168 44.5574 58.904 43.6134 58.376C42.6854 57.848 41.9654 57.096 41.4534 56.12C40.9574 55.144 40.7094 54 40.7094 52.688C40.7094 51.36 40.9654 50.216 41.4774 49.256C41.9894 48.28 42.7094 47.52 43.6374 46.976C44.5654 46.432 45.6774 46.16 46.9734 46.16C48.2534 46.16 49.3574 46.432 50.2854 46.976C51.2134 47.52 51.9254 48.288 52.4214 49.28C52.9174 50.256 53.1654 51.408 53.1654 52.736C53.1654 54.032 52.9174 55.168 52.4214 56.144C51.9414 57.104 51.2374 57.848 50.3094 58.376C49.3814 58.904 48.2694 59.168 46.9734 59.168ZM46.9494 56.504C47.7494 56.504 48.3894 56.328 48.8694 55.976C49.3654 55.624 49.7254 55.16 49.9494 54.584C50.1734 54.008 50.2854 53.384 50.2854 52.712C50.2854 52.04 50.1734 51.408 49.9494 50.816C49.7254 50.224 49.3654 49.752 48.8694 49.4C48.3894 49.032 47.7494 48.848 46.9494 48.848C46.1494 48.848 45.5014 49.032 45.0054 49.4C44.5094 49.752 44.1494 50.224 43.9254 50.816C43.7014 51.392 43.5894 52.024 43.5894 52.712C43.5894 53.384 43.7014 54.016 43.9254 54.608C44.1654 55.184 44.5254 55.648 45.0054 56C45.5014 56.336 46.1494 56.504 46.9494 56.504ZM59.5418 59.168C58.9498 59.168 58.3898 59.088 57.8618 58.928C57.3338 58.768 56.8618 58.536 56.4458 58.232C56.0298 57.912 55.6938 57.52 55.4378 57.056C55.1978 56.576 55.0778 56.016 55.0778 55.376C55.0778 54.56 55.2378 53.896 55.5578 53.384C55.8778 52.856 56.3098 52.456 56.8538 52.184C57.4138 51.912 58.0458 51.728 58.7498 51.632C59.4538 51.52 60.1898 51.464 60.9578 51.464H63.4298C63.4298 50.904 63.3418 50.424 63.1658 50.024C62.9898 49.608 62.7098 49.28 62.3258 49.04C61.9578 48.8 61.4778 48.68 60.8858 48.68C60.5018 48.68 60.1418 48.728 59.8058 48.824C59.4858 48.904 59.2058 49.04 58.9658 49.232C58.7418 49.408 58.5818 49.64 58.4858 49.928H55.4858C55.5978 49.272 55.8218 48.712 56.1578 48.248C56.5098 47.768 56.9338 47.376 57.4298 47.072C57.9418 46.768 58.5018 46.544 59.1098 46.4C59.7178 46.24 60.3338 46.16 60.9578 46.16C62.7978 46.16 64.1338 46.688 64.9658 47.744C65.8138 48.8 66.2378 50.28 66.2378 52.184V59H63.6458L63.5738 57.368C63.2058 57.912 62.7658 58.312 62.2538 58.568C61.7418 58.824 61.2458 58.984 60.7658 59.048C60.2858 59.128 59.8778 59.168 59.5418 59.168ZM60.1178 56.792C60.7578 56.792 61.3258 56.672 61.8218 56.432C62.3178 56.192 62.7098 55.856 62.9978 55.424C63.3018 54.992 63.4538 54.496 63.4538 53.936V53.528H61.1497C60.7658 53.528 60.3818 53.544 59.9978 53.576C59.6298 53.592 59.2938 53.656 58.9898 53.768C58.6858 53.864 58.4378 54.016 58.2458 54.224C58.0698 54.432 57.9818 54.728 57.9818 55.112C57.9818 55.496 58.0778 55.808 58.2698 56.048C58.4778 56.288 58.7418 56.472 59.0618 56.6C59.3978 56.728 59.7498 56.792 60.1178 56.792ZM69.0332 59V42.032H71.9612V59H69.0332ZM73.4788 59L79.9828 42.032H83.5588L90.0388 59H86.7988L85.6708 55.856H77.8468L76.6948 59H73.4788ZM78.8068 53.144H84.6868L81.7588 45.056L78.8068 53.144Z" fill="black"/>
<path d="M164.11 0C192.068 0 215.56 19.1215 222.221 45H206.546C200.368 27.5227 183.703 15 164.11 15C144.518 15 127.853 27.5227 121.675 45H106C112.661 19.1215 136.153 0 164.11 0Z" fill="black"/>
<path d="M58.1104 111C30.1527 111 6.66059 91.8785 3.93402e-06 66L15.6748 66C21.8527 83.4772 38.5175 96 58.1104 96C77.7032 96 94.368 83.4772 100.546 66L116.221 66C109.56 91.8785 86.068 111 58.1104 111Z" fill="black"/>
<rect x="207" y="65" width="15" height="52" fill="black"/>
<circle cx="7" cy="52" r="7" fill="black"/>
</svg>
